<?xml version="1.0" standalone="no"?>
<!DOCTYPE svg PUBLIC "-//W3C//DTD SVG 20010904//EN"
 "http://www.w3.org/TR/2001/REC-SVG-20010904/DTD/svg10.dtd">
<svg version="1.0" xmlns="http://www.w3.org/2000/svg"
 width="70.000000pt" height="70.000000pt" viewBox="0 0 70.000000 70.000000"
 preserveAspectRatio="xMidYMid meet">
<metadata>
Created by potrace 1.11, written by Peter Selinger 2001-2013
</metadata>
<g transform="translate(0.000000,70.000000) scale(0.100000,-0.100000)"
fill="#000000" stroke="none">
<path d="M116 654 c-32 -32 -35 -55 -34 -308 0 -254 0 -257 23 -284 l23 -27
241 -3 c212 -3 241 -1 241 12 0 18 14 17 -273 17 -173 0 -190 2 -208 20 -24
24 -24 34 0 58 18 18 36 19 247 18 l229 0 3 256 2 257 -239 0 c-205 0 -242 -2
-255 -16z m460 -17 c5 -5 7 -171 5 -397 l-1 -55 -212 1 c-117 1 -223 -3 -235
-7 l-23 -9 0 208 c0 114 3 217 6 228 3 12 14 26 25 30 21 10 426 11 435 1z"/>
<path d="M195 568 c-18 -11 -21 -83 -2 -95 17 -11 298 -13 320 -2 20 11 24 83
5 96 -18 10 -304 11 -323 1z m305 -47 l0 -28 -145 -1 -145 -1 0 28 0 27 145 1
145 1 0 -27z"/>
</g>
</svg>
